<svg xmlns="http://www.w3.org/2000/svg" color-interpolation-filters="sRGB" style="margin: auto;" data-v-6805eed4="" version="1.0" width="161" height="53"><rect id="backgroundrect" width="100%" height="100%" x="0" y="0" fill="none" stroke="none"/>

<g class="currentLayer" style=""><title>Layer 1</title><g class="icon-text-wrapper icon-svg-group iconsvg" fill="#CD8C2A" data-v-6805eed4="" id="svg_9">
<g class="iconsvg-imagesvg icon_container" fill="#cd8c2a" id="svg_10">
<rect class="image-rect" width="53.279998779296875" height="53.279998779296875" fill="#CD8C2A" fill-opacity="0" stroke-width="2" y="-0.000003814697265625" x="0" id="svg_11"/>
<g id="svg_3"><svg class="image-svg-svg bn" width="53.279998779296875" height="53.279998779296875" overflow="visible" viewBox="0 0 60 66.70372429127293" x="0" y="-0.000003814697265625" id="svg_12">
<g mask="url(#svg_1)" hollow-target="iconBnFill" id="svg_13">
<g id="svg_5"><svg xmlns="http://www.w3.org/2000/svg" xmlns:xlink="http://www.w3.org/1999/xlink" width="60" height="66.7040023803711" fill="#000000" filter="url(#svg_4)" overflow="visible" filtersec="colorsf7068355307" version="1.1" viewBox="9.5 5 81 90.05" xml:space="preserve" id="svg_14"><g transform="scale(1) " id="svg_15"><path d="M90.5,68.6V31.4c0-2.8-1.5-5.4-4-6.8L54,6c-1.2-0.7-2.6-1-4-1s-2.7,0.3-4,1L13.5,24.6c-2.4,1.4-4,4-4,6.8v37.2  c0,2.8,1.5,5.4,4,6.8L46,94c2.4,1.4,5.5,1.4,7.9,0l32.6-18.6C89,74,90.5,71.4,90.5,68.6z" id="svg_16"/></g><defs><filter id="svg_4"><feColorMatrix values="0 0 0 0 0.80078125  0 0 0 0 0.546875  0 0 0 0 0.1640625  0 0 0 1 0"/></filter></defs></svg></g>
<g filter="url(#b)" id="svg_17">
<g id="svg_6"><svg xmlns="http://www.w3.org/2000/svg" xmlns:xlink="http://www.w3.org/1999/xlink" class="image-svg-letter" x="12.180000305175781" y="13.541000366210938" width="35.63999938964844" height="39.62200164794922" viewBox="0 0 46.87200000000001 48.24000000000001" id="svg_18">
<path d="m22.74799988746643,48.2400016784668 c13.83,0 24.12,-7.85 24.12,-24.26 c0,-16.2 -10.29,-23.98 -24.12,-23.98 h-22.75 v8.5 h4.68 v30.96 h-4.68 v8.78 zm0.08000000000000002,-39.74 c7.63,0 13.68,4.6 13.68,15.48 c0,11.01 -6.05,15.76 -13.68,15.76 h-7.85 v-31.24 z" id="svg_19"/>
</svg></g>
</g>
</g>
<mask id="svg_1">
<g fill="#fff" id="svg_20">
<g id="svg_7"><svg xmlns="http://www.w3.org/2000/svg" xmlns:xlink="http://www.w3.org/1999/xlink" width="60" height="66.7040023803711" overflow="visible" filtersec="colorsf7068355307" version="1.1" viewBox="9.5 5 81 90.05" xml:space="preserve" id="svg_21"><g transform="scale(1) " id="svg_22"><path d="M90.5,68.6V31.4c0-2.8-1.5-5.4-4-6.8L54,6c-1.2-0.7-2.6-1-4-1s-2.7,0.3-4,1L13.5,24.6c-2.4,1.4-4,4-4,6.8v37.2  c0,2.8,1.5,5.4,4,6.8L46,94c2.4,1.4,5.5,1.4,7.9,0l32.6-18.6C89,74,90.5,71.4,90.5,68.6z" id="svg_23"/></g></svg></g>
</g>
<g fill="#000" id="svg_24">
<g id="svg_8"><svg xmlns="http://www.w3.org/2000/svg" xmlns:xlink="http://www.w3.org/1999/xlink" class="image-svg-letter" x="12.180000305175781" y="13.541000366210938" width="35.63999938964844" height="39.62200164794922" viewBox="0 0 46.87200000000001 48.24000000000001" id="svg_25">
<path d="m22.74799988746643,48.2400016784668 c13.83,0 24.12,-7.85 24.12,-24.26 c0,-16.2 -10.29,-23.98 -24.12,-23.98 h-22.75 v8.5 h4.68 v30.96 h-4.68 v8.78 zm0.08000000000000002,-39.74 c7.63,0 13.68,4.6 13.68,15.48 c0,11.01 -6.05,15.76 -13.68,15.76 h-7.85 v-31.24 z" id="svg_26"/>
</svg></g>
</g>
</mask>
</svg></g>
<defs transform="translate(-71.19200134277344,-59.25200271606445) translate(71.19200134277344,59.25199890136719) ">
<filter id="b">
<feColorMatrix class="icon-fecolormatrix" values="0 0 0 0 0.80078125  0 0 0 0 0.546875  0 0 0 0 0.1640625  0 0 0 1 0"/>
</filter>
</defs>
</g>
<g id="svg_27">
<g class="tp-name iconsvg-namesvg" fill-rule="" data-gra="path-name" id="svg_28">
<g transform="translate(71.19200134277344,59.25199890136719) scale(1) " id="svg_29">
<path d="m-17.24700159549713,-20.212002754211426 h21.01 v-8.32 h-3.95 l-0.3400000000000003,3.84 h-8.82 v-6.39 h7.3 v-3.5700000000000003 h-7.3 v-6.54 h8.82 l0.3400000000000003,3.84 h3.95 v-8.32 h-21.01 v4.48 h2.47 v16.5 h-2.47 zm23.1,-12.81 c0,8.67 5.51,13.11 13.23,13.11 c3.68,0 7.1,-1.06 9.42,-2.6900000000000004 l-1.22,-4.53 c-1.82,1.37 -4.67,2.47 -7.71,2.47 c-4.98,0 -8.21,-3.11 -8.21,-8.36 c0,-5.13 3.23,-8.24 7.37,-8.24 c1.37,0 2.66,0.07 3.84,0.26 l0.46,6.3100000000000005 h5.13 v-9.73 c-2.7800000000000002,-0.9500000000000003 -5.4,-1.55 -9.31,-1.55 c-7.45,0 -13,4.4 -13,12.95 zm44.54,0 c0,5.29 -2.74,8.4 -6.88,8.4 c-4.22,0 -6.92,-3.11 -6.92,-8.4 c0,-5.16 2.7,-8.24 6.92,-8.24 c4.14,0 6.88,3.11 6.88,8.24 zm5.47,0 c0,-8.55 -5.24,-12.95 -12.39,-12.95 c-7.14,0 -12.39,4.4 -12.39,12.95 c0,8.71 5.25,13.11 12.39,13.11 c7.15,0 12.39,-4.44 12.39,-13.11 zm1.71,8.33 v4.48 h10.15 v-4.48 h-2.25 v-15.77 l6.08,16.83 h4.5600000000000005 l6.08,-16.83 v15.77 h-2.2 v4.48 h10.15 v-4.48 h-2.51 v-16.5 h2.51 v-4.48 h-10.68 l-5.63,15.35 l-5.62,-15.35 h-10.64 v4.48 h2.47 v16.5 z" id="svg_30"/>
</g>
</g>
</g>
</g></g></svg>