<?xml version="1.0" encoding="utf-8"?>
<!-- Generator: Adobe Illustrator 26.3.1, SVG Export Plug-In . SVG Version: 6.00 Build 0)  -->
<svg version="1.1" id="a" xmlns="http://www.w3.org/2000/svg" xmlns:xlink="http://www.w3.org/1999/xlink" x="0px" y="0px"
	 viewBox="0 0 287.3 334" style="enable-background:new 0 0 287.3 334;" xml:space="preserve">
<style type="text/css">
	.st0{fill:#11162D;}
	.st1{fill:#F19024;}
	.st2{fill:#FFFFFA;}
</style>
<polygon class="st0" points="48.1,8 9,52 9,317.4 28.5,323.8 261.2,323.8 284.1,293.2 284.1,14 "/>
<g>
	<path class="st1" d="M234.6,29.7H53c-10.7,0-10.7,16,0,16h181.6C245.2,45.7,245.3,29.7,234.6,29.7z"/>
	<path class="st1" d="M286.4,288.9V51.3c0-14.2,0.5-28.4,0-42.6c0-0.2,0-0.4,0-0.6c0-3.8-2.5-6.1-5.5-6.7c-1.3-0.8-2.8-1.3-4.4-1.3
		H53.4C49,0,45.3-0.4,41.7,2.9c-7.2,6.7-14,13.9-21,20.9C15,29.5,8.8,35.1,3.3,41.2c-2.8,3.1-2.9,7.7-2.5,11.6
		c0.1,0.8,0.2,1.6,0.4,2.4c-0.2,0.7-0.3,1.3-0.3,2.1v212.3c0,10.9-0.2,21.8,0,32.6c0.2,10.8,9.1,21.5,18.8,26.2
		c5.4,2.6,10,3.4,15.7,3.4h221.2c1.3,0,2.5-0.3,3.6-0.9c2.9,0.3,5.7-1.1,7.4-3.5c3-4.4,6.1-8.8,9.1-13.2c2-3,4.1-5.9,6.1-8.9
		c1.2-1.7,2.8-3.4,3.3-5.4C287.1,296.6,286.4,292.3,286.4,288.9L286.4,288.9z M30.5,315.8C30.2,315.8,29.8,315.7,30.5,315.8
		L30.5,315.8z M248.3,97.8v215.7c0,0.8,0,1.5,0,2.3H44c-4,0-8-0.1-12,0c-0.4-0.1-0.9-0.2-1.1-0.2c-0.5-0.1-2-0.6-1.9-0.6
		c-4-1.6-7.4-4.4-9.5-8c-1.1-1.8-1.3-2.4-1.6-3.4c-0.1-0.3-0.2-0.7-0.3-1.1c0-0.4-0.1-0.9-0.1-1.1V75.7c1.3,0.6,2.7,1.1,4.1,1.5
		c2.6,0.8,5.5,1.1,8.2,1.2c1.3,0,2.7-0.1,4-0.2c0.8-0.1,2.8-0.2,1.7-0.2c10.6,0,21.1,0.3,31.7,0.4l70,0.9l74.1,0.9
		c12.4,0.2,24.8,0.3,37.2,0.5L248.3,97.8L248.3,97.8z M264.9,305.5V103.7c0-10.2,0.4-20.4,0-30.5c0-0.1,0-0.3,0-0.4
		c0-4.4-3.8-8-8.3-8c-28.2-0.4-56.3-0.7-84.5-1.1c-40.7-0.5-81.4-1-122.1-1.6c-4.7-0.1-9.4-0.2-14-0.2c-2.7,0-5.3,0.7-8,0.3
		c-4.1-0.6-8-3-9.7-6.7c-0.3-0.7-0.5-1.4-0.7-2.1c-0.4-1.6-0.3-1.4-0.4-2.3c0-0.2,0-0.5,0-0.8C28.7,38.9,40.1,27.5,51.6,16h208.1
		c-3,3.7-6,7.5-9,11.2c-2.7,3.4-3.4,8,0,11.3c2.9,2.8,8.9,3.4,11.7,0c3-3.8,6.1-7.6,9.1-11.3v259c0,3.2-0.3,6.6-0.1,9.8
		C269.3,299.2,267.1,302.4,264.9,305.5L264.9,305.5z"/>
</g>
<polygon class="st1" points="142.8,233.8 94.7,233.8 61.9,187.7 110,187.7 "/>
<polyline class="st2" points="207.4,136.7 143.4,233.8 95.3,233.8 159.3,136.7 "/>
</svg>
